<svg width="14" height="14" viewBox="0 0 14 14" fill="#FFFFFF" xmlns="http://www.w3.org/2000/svg">
<path d="M9.00002 10.3333H12.3334L11.3967 9.39671C11.1427 9.1427 11 8.79819 11 8.43897V6.33334C11 4.59171 9.88694 3.11006 8.33335 2.56094V2.33333C8.33335 1.59695 7.7364 1 7.00002 1C6.26364 1 5.66669 1.59695 5.66669 2.33333V2.56094C4.1131 3.11006 3.00002 4.59171 3.00002 6.33334V8.43897C3.00002 8.79819 2.85732 9.1427 2.60331 9.39671L1.66669 10.3333H5.00002M9.00002 10.3333V11C9.00002 12.1046 8.10459 13 7.00002 13C5.89545 13 5.00002 12.1046 5.00002 11V10.3333M9.00002 10.3333H5.00002" stroke="white" stroke-width="1.5" stroke-linecap="round" stroke-linejoin="round"/>
</svg>
